<svg xmlns="http://www.w3.org/2000/svg" width="207.574" height="69.223" viewBox="74.908 3377.388 207.574 69.223"><g data-name="logo-fluid"><g data-name="Group 139"><path d="M79.689 3446.419c1.31 0 2.467-.443 3.431-1.35.925-.867 1.407-1.985 1.407-3.373v-21.59h14.246c2.699 0 4.78-1.89 4.78-4.588 0-2.699-2.081-4.78-4.78-4.78H84.508v-16.52h20.761c2.699 0 4.723-2.083 4.723-4.781 0-1.408-.443-2.506-1.35-3.432-.925-.925-2.081-1.407-3.373-1.407H79.69c-1.6 0-2.795.54-3.663 1.542-.732.868-1.118 1.89-1.118 3.084v52.434c0 1.31.482 2.41 1.407 3.335.906.944 2.063 1.426 3.374 1.426Z" fill="#efefef" fill-rule="evenodd" data-name="Path 232"/><path d="M121.462 3446.42h25.445c1.35.057 2.506-.444 3.432-1.35.925-.926 1.349-2.024 1.349-3.374 0-2.699-2.082-4.78-4.78-4.78l-20.03-.058v-47.48c0-1.349-.481-2.505-1.407-3.43-.925-.926-2.024-1.35-3.431-1.35-1.35 0-2.467.443-3.373 1.35-.926.925-1.408 2.081-1.408 3.43v52.299c0 2.313 1.543 4.202 3.817 4.626l.386.116Z" fill="#efefef" fill-rule="evenodd" data-name="Path 233"/><path d="M218.213 3446.419c2.698 0 4.838-2.024 4.838-4.723v-52.356c0-2.699-2.12-4.723-4.838-4.723-2.7 0-4.781 2.024-4.781 4.723v52.337c0 2.699 2.082 4.742 4.78 4.742Z" fill="#efefef" fill-rule="evenodd" data-name="Path 234"/><path d="M251.002 3446.419c5.745 0 11.2-1.446 15.885-4.144 4.877-2.796 8.636-6.478 11.296-10.969 2.853-4.877 4.299-10.101 4.299-15.691 0-5.649-1.446-10.873-4.3-15.75-2.698-4.588-6.611-8.404-11.295-11.103-4.685-2.699-10.14-4.145-15.885-4.145h-10.621c-2.699 0-4.78 2.024-4.78 4.723v52.337c0 2.699 2.081 4.723 4.78 4.723l10.621.019Zm-5.802-9.658v-42.447h6.092c5.937.038 11.354 2.37 15.267 6.226 3.913 3.913 6.284 9.214 6.284 15.075 0 5.995-2.313 11.257-6.323 15.113-4.01 3.816-9.465 6.033-15.46 6.033h-5.86Z" fill="#efefef" fill-rule="evenodd" data-name="Path 235"/></g><g data-name="Group 140"><path d="M202.097 3414.323c-.559-1.986-2.255-8-13.012-22.708l-10.41-14.227a18.454 18.454 0 0 0-.751 20.665l.752 1.195c5.127 6.998 9.812 14.362 11.007 18.583 1.06 3.76 1.118 7.441-1.138 10.757-2.216 3.296-5.918 5.108-9.87 5.108-3.951 0-7.652-1.812-9.87-5.108-2.235-3.316-2.177-6.998-1.137-10.757 1.022-3.662 4.685-9.657 8.964-15.749l-2.332-3.123a15.493 15.493 0 0 1-2.892-11.643l-3.161 4.318c-10.776 14.708-12.453 20.723-13.012 22.708-2.834 10.082 0 17.253 2.872 21.494 4.569 6.747 12.26 10.776 20.569 10.776 8.308 0 16-4.03 20.568-10.776 2.853-4.26 5.687-11.431 2.853-21.513" fill="#efefef" fill-rule="evenodd" data-name="Path 236"/><path d="M168.555 3415.383c1.6-3.605 4.627-8.443 8.077-13.32l-2.332-3.123a15.513 15.513 0 0 1-2.892-11.643l-3.161 4.318c-10.776 14.708-12.453 20.722-13.012 22.708-2.834 10.082 0 17.253 2.872 21.494a24.138 24.138 0 0 0 5.899 6.053c-1.658-14.439 4.55-26.487 4.55-26.487" fill="#c9c9c9" fill-rule="evenodd" data-name="Path 237"/><path d="M178.676 3377.388a18.454 18.454 0 0 0-.752 20.665l.752 1.195c5.127 6.998 9.811 14.362 11.007 18.583 1.06 3.76 1.118 7.441-1.138 10.757-.27.405-.578.79-.886 1.137 7.768-7.98 6.862-22.226 3.99-34.525a152.081 152.081 0 0 0-2.564-3.585l-10.41-14.227Z" fill="#e3e3e3" fill-rule="evenodd" data-name="Path 238"/></g></g></svg>