<svg xmlns="http://www.w3.org/2000/svg" width="92.389" height="30.811" viewBox="675.299 53.189 92.389 30.811"><g data-name="logo-fluid"><g data-name="Group 141"><path d="M677.427 83.914a2.16 2.16 0 0 0 1.527-.6c.412-.386.627-.884.627-1.502v-9.61h6.34c1.201 0 2.128-.84 2.128-2.041a2.095 2.095 0 0 0-2.128-2.128h-6.349V60.68h9.24c1.202 0 2.103-.927 2.103-2.128 0-.626-.198-1.116-.6-1.527a2.075 2.075 0 0 0-1.502-.627h-11.386c-.712 0-1.244.24-1.63.687-.326.386-.498.84-.498 1.372v23.338c0 .583.215 1.072.627 1.484.403.42.918.635 1.501.635Z" fill-rule="evenodd" data-name="Path 239"/><path d="M696.02 83.914h11.325c.6.026 1.116-.197 1.528-.6.411-.412.6-.901.6-1.502a2.095 2.095 0 0 0-2.128-2.128l-8.914-.025V58.526c0-.6-.215-1.115-.627-1.527-.411-.412-.9-.6-1.527-.6-.6 0-1.098.197-1.501.6a2.091 2.091 0 0 0-.627 1.527v23.278c0 1.03.687 1.87 1.7 2.059l.17.051Z" fill-rule="evenodd" data-name="Path 240"/><path d="M739.083 83.914c1.2 0 2.153-.9 2.153-2.102V58.51c0-1.201-.944-2.102-2.153-2.102-1.202 0-2.128.9-2.128 2.102v23.295c0 1.2.926 2.11 2.128 2.11Z" fill-rule="evenodd" data-name="Path 241"/><path d="M753.677 83.914c2.557 0 4.985-.643 7.07-1.844 2.17-1.245 3.844-2.883 5.028-4.882 1.27-2.171 1.913-4.496 1.913-6.985 0-2.513-.643-4.839-1.913-7.01-1.201-2.041-2.943-3.74-5.028-4.941-2.085-1.202-4.513-1.845-7.07-1.845h-4.727c-1.202 0-2.128.9-2.128 2.102v23.295c0 1.2.926 2.102 2.128 2.102l4.727.008Zm-2.582-4.298V60.723h2.71c2.643.017 5.054 1.055 6.796 2.77 1.742 1.743 2.797 4.102 2.797 6.71 0 2.669-1.03 5.011-2.814 6.727-1.785 1.699-4.213 2.686-6.881 2.686h-2.608Z" fill-rule="evenodd" data-name="Path 242"/></g><g data-name="Group 142"><path d="M731.91 69.629c-.25-.884-1.004-3.561-5.792-10.108l-4.633-6.332a8.214 8.214 0 0 0-.335 9.198l.335.532c2.282 3.115 4.367 6.392 4.9 8.271.471 1.673.497 3.312-.507 4.788-.987 1.467-2.634 2.273-4.393 2.273s-3.406-.806-4.393-2.273c-.995-1.476-.97-3.115-.506-4.788.455-1.63 2.085-4.298 3.99-7.01l-1.039-1.39a6.896 6.896 0 0 1-1.287-5.182l-1.407 1.922c-4.796 6.546-5.542 9.223-5.791 10.107-1.261 4.487 0 7.68 1.278 9.567 2.034 3.003 5.457 4.796 9.155 4.796 3.698 0 7.121-1.793 9.155-4.796 1.27-1.896 2.531-5.088 1.27-9.575" fill-rule="evenodd" data-name="Path 243"/><path d="M716.98 70.1c.713-1.604 2.06-3.758 3.596-5.928l-1.039-1.39a6.905 6.905 0 0 1-1.287-5.183l-1.407 1.922c-4.796 6.547-5.542 9.224-5.791 10.108-1.261 4.487 0 7.679 1.278 9.566a10.743 10.743 0 0 0 2.626 2.694c-.738-6.426 2.025-11.789 2.025-11.789" fill="#4c4c4c" fill-rule="evenodd" data-name="Path 244"/><path d="M721.485 53.19a8.214 8.214 0 0 0-.335 9.197l.335.532c2.282 3.115 4.367 6.392 4.9 8.271.471 1.673.497 3.312-.507 4.788-.12.18-.257.352-.395.506 3.458-3.552 3.055-9.893 1.776-15.367a67.618 67.618 0 0 0-1.14-1.596l-4.634-6.332Z" fill="#383838" fill-rule="evenodd" data-name="Path 245"/></g></g></svg>